<?xml version="1.0" encoding="utf-8"?>
<!-- Generator: Adobe Illustrator 27.5.0, SVG Export Plug-In . SVG Version: 6.00 Build 0)  -->
<svg version="1.1" xmlns="http://www.w3.org/2000/svg" xmlns:xlink="http://www.w3.org/1999/xlink" x="0px" y="0px"
	 viewBox="0 0 500 500" style="enable-background:new 0 0 500 500;" xml:space="preserve">
<g id="BACKGROUND">
	<g>
		<defs>
			<rect id="SVGID_3_" width="500" height="500"/>
		</defs>
		<clipPath id="SVGID_00000183957517160895345200000012780590878531085239_">
			<use xlink:href="#SVGID_3_"  style="overflow:visible;"/>
		</clipPath>
		<g style="clip-path:url(#SVGID_00000183957517160895345200000012780590878531085239_);">
			<path style="fill:#FFF5F3;" d="M56.022,197.301c25.161-14.208,53.128-24.467,82.102-26.621
				c23.191-1.724,45.973,2.925,65.924,15.068c18.24,11.101,33.022,26.921,46.522,43.255c28.909,34.978,54.695,76.785,99.729,92.423
				c48.047,16.683,102.126,0.953,139.867-31.388c5.665-4.855,10.858-10.074,15.65-15.592V-3.636h-30.642
				c-0.783,1.878-1.584,3.749-2.419,5.605c-16.763,37.27-44.429,70.129-81.376,88.535c-45.405,22.62-98.945,19.833-146.201,4.736
				c-25.93-8.284-51.572-18.243-78.454-23.079c-12.045-2.167-24.573-3.499-36.804-2.32c-10.16,0.98-20.104,3.761-29.361,8.049
				c-36.655,16.979-60.489,53.42-80.879,86.702c-8.831,14.414-17.514,29.224-25.5,44.43v36.013
				C12.409,226.345,33.313,210.124,56.022,197.301z"/>
			<path style="fill:#FFF5F3;" d="M250.643,39.937c9.959,6.272,20.704,11.357,32.02,14.642c22.195,6.444,46.245,5.311,67.007-5.231
				c18.15-9.215,32.802-24.176,44.116-40.9c2.653-3.922,5.138-7.958,7.467-12.083H196.327c8.659,7.751,17.703,15.098,26.657,22.4
				C231.992,26.11,240.785,33.728,250.643,39.937z"/>
		</g>
	</g>
</g>
<g id="OBJECTS">
	<g>
		<defs>
			<rect id="SVGID_1_" width="500" height="500"/>
		</defs>
		<clipPath id="SVGID_00000158004002823875011640000017157558608104928688_">
			<use xlink:href="#SVGID_1_"  style="overflow:visible;"/>
		</clipPath>
		<g style="clip-path:url(#SVGID_00000158004002823875011640000017157558608104928688_);">
			<g>
				<rect x="-5.81" y="381.461" style="fill:#ABB2F4;" width="511.635" height="124.721"/>
				<g>
					<g>
						<g>
							<path style="fill:#D0D3FC;" d="M579.225,94.822c-0.699-12.083-10.69-21.674-22.948-21.674c-6.09,0-11.611,2.382-15.727,6.244
								c-3.766-12.928-15.695-22.379-29.839-22.379c-2.652,0-5.226,0.334-7.684,0.959c-3.404-26.704-26.195-47.352-53.824-47.352
								c-19.177,0-36.018,9.953-45.673,24.967c-1.351-0.132-2.721-0.203-4.107-0.203c-20.781,0-38.019,15.133-41.318,34.979
								c-3.685-2.005-7.908-3.144-12.398-3.144c-14.348,0-25.98,11.632-25.98,25.98c0,0.548,0.048,1.083,0.082,1.623H579.225z"/>
							
								<path style="fill:none;stroke:#8B89E8;stroke-width:0.5;stroke-linecap:round;stroke-linejoin:round;stroke-miterlimit:10;" d="
								M567.654,176.663V158.27h-5.413c-0.43-3.002-1.047-5.943-1.838-8.812l5.142-2.07l-6.87-17.062l-5.422,2.183
								c-1.729-2.958-3.664-5.78-5.786-8.447l4.255-4.255l-13.006-13.006l-4.449,4.449c-2.312-1.727-4.731-3.317-7.247-4.759
								l2.51-5.894l-16.922-7.207l-2.598,6.099c-3.171-0.846-6.428-1.479-9.757-1.884V90.87h-18.393v6.868
								c-2.825,0.384-5.599,0.929-8.309,1.634l-2.574-6.392l-17.062,6.87l2.585,6.42c-2.868,1.62-5.613,3.432-8.217,5.419
								l-4.886-4.886l-13.006,13.006l4.818,4.817c-1.741,2.234-3.353,4.573-4.823,7.008l-6.198-2.64l-7.207,16.922l6.015,2.562
								c-0.926,3.178-1.636,6.448-2.116,9.793h-6.421v18.393h6.158c0.335,2.937,0.847,5.82,1.527,8.637l-5.576,2.245l6.87,17.062
								l5.3-2.134c1.652,3.048,3.52,5.963,5.583,8.723l-3.929,3.929l13.006,13.006l3.735-3.735c2.372,1.887,4.864,3.629,7.467,5.206
								l-2.015,4.732l16.922,7.207l1.926-4.522c3.379,0.991,6.862,1.738,10.429,2.223v4.82h18.393v-4.689
								c3.116-0.378,6.172-0.953,9.151-1.72l1.732,4.3l17.062-6.87l-1.727-4.289c3.139-1.763,6.133-3.754,8.955-5.954l3.29,3.29
								l13.006-13.006l-3.359-3.359c1.871-2.452,3.591-5.026,5.137-7.713l4.426,1.885l7.207-16.922l-4.604-1.96
								c0.906-3.373,1.57-6.844,1.975-10.394H567.654z M491.561,204.508c-19.892,0-36.017-16.126-36.017-36.018
								c0-19.892,16.126-36.017,36.017-36.017s36.017,16.126,36.017,36.017C527.579,188.383,511.453,204.508,491.561,204.508z"/>
						</g>
						<g>
							
								<path style="fill:none;stroke:#8B89E8;stroke-width:0.5;stroke-linecap:round;stroke-linejoin:round;stroke-miterlimit:10;" d="
								M171.797,22.407V4.014h-5.413c-0.43-3.002-1.046-5.943-1.838-8.812l5.142-2.07l-6.87-17.062l-5.422,2.183
								c-1.729-2.958-3.664-5.78-5.786-8.447l4.255-4.254l-13.006-13.006l-4.449,4.449c-2.311-1.727-4.731-3.317-7.247-4.759
								l2.51-5.894l-16.922-7.207l-2.597,6.099c-3.171-0.846-6.428-1.479-9.757-1.884v-6.737H86.003v6.868
								c-2.825,0.384-5.599,0.929-8.309,1.634l-2.574-6.392l-17.062,6.87l2.585,6.42c-2.868,1.62-5.613,3.432-8.217,5.419
								l-4.886-4.886L34.535-34.449l4.818,4.817c-1.742,2.234-3.353,4.573-4.823,7.008l-6.198-2.64L21.124-8.341l6.015,2.562
								c-0.926,3.178-1.636,6.448-2.116,9.793h-6.42v18.393h6.158c0.335,2.937,0.847,5.82,1.527,8.637l-5.576,2.245l6.87,17.062
								l5.3-2.134c1.652,3.048,3.52,5.963,5.583,8.723l-3.929,3.929L47.54,73.875l3.735-3.735c2.372,1.887,4.864,3.629,7.467,5.206
								l-2.015,4.732l16.922,7.207l1.926-4.522c3.379,0.991,6.862,1.738,10.429,2.223v4.82h18.393v-4.689
								c3.116-0.378,6.172-0.953,9.151-1.72l1.732,4.3l17.062-6.87l-1.727-4.289c3.139-1.763,6.133-3.754,8.956-5.954l3.29,3.29
								l13.006-13.006l-3.359-3.359c1.871-2.452,3.59-5.026,5.137-7.713l4.426,1.885l7.207-16.922l-4.604-1.96
								c0.906-3.373,1.57-6.844,1.975-10.394H171.797z M95.704,50.251c-19.892,0-36.018-16.126-36.018-36.018
								c0-19.892,16.126-36.017,36.018-36.017s36.018,16.126,36.018,36.017C131.721,34.126,115.595,50.251,95.704,50.251z"/>
							<path style="fill:#D0D3FC;" d="M203.432,141.73c-0.698-12.083-10.69-21.674-22.948-21.674
								c-6.089,0-11.611,2.382-15.727,6.244c-3.766-12.928-15.695-22.379-29.839-22.379c-2.652,0-5.226,0.334-7.684,0.959
								c-3.404-26.704-26.195-47.352-53.824-47.352c-19.177,0-36.017,9.954-45.673,24.967c-1.351-0.132-2.721-0.203-4.106-0.203
								c-20.781,0-38.019,15.134-41.319,34.979c-3.684-2.005-7.908-3.144-12.397-3.144c-14.348,0-25.98,11.632-25.98,25.98
								c0,0.548,0.049,1.083,0.082,1.623H203.432z"/>
						</g>
					</g>
					<g>
						<g>
							<g>
								<rect x="99.33" y="165.788" style="fill:#8B89E8;" width="304.641" height="248.53"/>
								<g>
									<g>
										<path style="fill:#6969BC;" d="M154.789,143.406L135.408,27.461c0,0,22.706-1.208,33.74,50.726
											C177.997,119.839,154.789,143.406,154.789,143.406z"/>
										
											<path style="fill:none;stroke:#FFFFFF;stroke-width:0.5;stroke-linecap:round;stroke-linejoin:round;stroke-miterlimit:10;" d="
											M143.142,29.8c0,0,9.83,27.152-2.536,28.757"/>
									</g>
									<g>
										<path style="fill:#7171CC;" d="M199.809,322.607h83.778l-17.538-131.912l27.84-64.072
											c4.396-10.118,3.971-21.684-1.156-31.452l-15.338-29.221c0,0-12.049,3.092-11.513,39.291
											c0.437,29.52-22.076,58.287-47.614,52.864c-34.394-7.305-37.444-56.17-37.444-56.17l17.411-24.727
											c15.045-20.12,1.818-28.64,1.818-28.64l-34.745,28.528c-5.782,4.748-9.226,11.766-9.444,19.245l-1.278,43.995
											c-0.114,3.908,1.185,7.727,3.657,10.756l38.091,46.672L199.809,322.607z"/>
										<g>
											
												<path style="fill:none;stroke:#FFFFFF;stroke-width:0.5;stroke-linecap:round;stroke-linejoin:round;stroke-miterlimit:10;" d="
												M181.015,64.197c0,0,8.785,6.531,23.376-9.957"/>
											
												<path style="fill:none;stroke:#FFFFFF;stroke-width:0.5;stroke-linecap:round;stroke-linejoin:round;stroke-miterlimit:10;" d="
												M272.795,69.887c0,0,7.534,17.879,15.34,16.527"/>
										</g>
									</g>
									<g>
										<g>
											<g>
												<g>
													<path style="fill:#D0D3FC;" d="M243.105,171.892c-3.043,5.68-9.035,9.544-15.93,9.544h-1.342
														c-6.796,0-12.687-3.879-15.577-9.545"/>
													<polyline style="fill:#D0D3FC;" points="208.355,157.219 208.355,154.672 245.235,154.672 245.235,157.102 
																											"/>
													<path style="fill:#D0D3FC;" d="M244.973,160.23H208.94c-0.857,0-1.553-0.7-1.553-1.564l0,0
														c0-0.864,0.695-1.564,1.553-1.564h36.032c0.857,0,1.553,0.7,1.553,1.564l0,0
														C246.525,159.53,245.83,160.23,244.973,160.23z"/>
													<path style="fill:#D0D3FC;" d="M244.973,166.06H208.94c-0.857,0-1.553-0.7-1.553-1.564l0,0
														c0-0.864,0.695-1.564,1.553-1.564h36.032c0.857,0,1.553,0.7,1.553,1.564l0,0
														C246.525,165.36,245.83,166.06,244.973,166.06z"/>
													<path style="fill:#D0D3FC;" d="M244.335,171.891h-34.876c-0.83,0-1.503-0.7-1.503-1.564l0,0
														c0-0.864,0.673-1.564,1.503-1.564h34.876c0.83,0,1.503,0.7,1.503,1.564l0,0
														C245.838,171.19,245.165,171.891,244.335,171.891z"/>
												</g>
											</g>
											<g>
												<path style="fill:#FCBCA0;" d="M275.511,103.059c0-27.122-22.854-48.907-50.355-47.148
													c-23.08,1.476-41.991,19.947-43.962,42.99c-1.492,17.441,6.507,33.108,19.394,42.441c0,0-0.003,0-0.003,0
													s0.02,0.012,0.024,0.015c0.429,0.31,0.857,0.622,1.297,0.918c2.303,1.788,6.813,6.094,6.813,12.397h36.409
													c0,0,0.341-1.933,2.028-4.784c1.793-3.03,4.337-5.543,7.267-7.495C267.132,133.926,275.511,119.475,275.511,103.059z"/>
												<g>
													<path style="fill:#FD6E66;" d="M242.542,115.152c-2.34-0.965-4.266-0.896-5.725,0.198
														c-3.843,2.882-2.926,11.894-2.887,12.231v0.27c-2.268,0.638-4.702,1.02-7.135,1.02c-2.433,0-4.869-0.383-7.137-1.022
														v-0.223c0.041-0.383,0.96-9.393-2.885-12.276c-1.461-1.094-3.388-1.161-5.727-0.198
														c-3.473,1.431-3.867,3.429-3.585,4.853c0.659,3.333,5.539,6.712,11.34,8.476v26.19c0,0.025,0.017,0.044,0.027,0.065
														h0.805c0.01-0.021,0.027-0.04,0.027-0.065l-0.002-25.943c2.328,0.634,4.775,1.002,7.137,1.002
														c2.36,0,4.808-0.368,7.135-1.002v25.943c0,0.025,0.017,0.044,0.027,0.065h0.805c0.01-0.021,0.027-0.04,0.027-0.065
														l-0.002-26.19c5.801-1.763,10.681-5.142,11.342-8.476C246.411,118.58,246.016,116.583,242.542,115.152z
														 M218.801,127.58v0.013c-5.569-1.755-9.954-5.011-10.498-7.757c-0.319-1.612,0.714-2.921,3.07-3.89
														c0.985-0.406,1.877-0.609,2.672-0.609c0.851,0,1.591,0.233,2.213,0.7C219.713,118.628,218.813,127.446,218.801,127.58z
														 M245.285,119.837c-0.542,2.748-4.929,6.002-10.498,7.759v-0.06c-0.01-0.089-0.909-8.91,2.545-11.498
														c0.622-0.466,1.361-0.7,2.213-0.7c0.795,0,1.688,0.203,2.672,0.609C244.572,116.916,245.605,118.225,245.285,119.837z"
														/>
												</g>
											</g>
										</g>
										<path style="fill:#F9CEC2;" d="M189.005,90.825c-1.054,4.746-1.254,10.039,1.36,14.137
											c2.615,4.098,8.862,6.055,12.52,2.853c3.331-2.915,2.984-8.138,4.786-12.181c1.564-3.508,4.718-6.018,7.875-8.205
											c3.157-2.187,6.508-4.264,8.81-7.338c2.302-3.074,3.316-7.489,1.316-10.767c-0.694-1.138-1.697-2.06-2.784-2.833
											C207.071,55.236,191.956,77.536,189.005,90.825z"/>
									</g>
								</g>
							</g>
							<g>
								<g>
									<g>
										<g>
											<g>
												<path style="fill:#FD6E66;" d="M93.824,181.427c-2.584,0-4.678-2.094-4.678-4.678v-23.086
													c0-9.488-7.719-17.207-17.206-17.207c-9.489,0-17.207,7.719-17.207,17.207v23.086c0,2.584-2.094,4.678-4.678,4.678
													s-4.678-2.094-4.678-4.678v-23.086c0-14.647,11.917-26.564,26.564-26.564s26.563,11.917,26.563,26.564v23.086
													C98.502,179.333,96.408,181.427,93.824,181.427z"/>
											</g>
											<g>
												<path style="fill:#EF5A56;" d="M45.376,162.204v14.545c0,2.584,2.094,4.678,4.678,4.678s4.678-2.094,4.678-4.678
													v-10.594C51.483,165.169,48.346,163.854,45.376,162.204z"/>
												<path style="fill:#EF5A56;" d="M89.146,165.626v11.123c0,2.584,2.094,4.678,4.678,4.678s4.678-2.094,4.678-4.678
													v-14.666C95.472,163.47,92.349,164.672,89.146,165.626z"/>
											</g>
										</g>
										<g>
											<g>
												<path style="fill:#FD6E66;" d="M61.828,172.546v32.396c0,16.961,13.749,30.71,30.71,30.71s30.71-13.749,30.71-30.71
													v-32.396H61.828z"/>
												<path style="fill:#EF5A56;" d="M92.538,222.554c-11.927,0-22.161-7.238-26.556-17.56
													c0.09,14.594,11.941,26.399,26.556,26.399c14.615,0,26.466-11.805,26.556-26.399
													C114.699,215.316,104.465,222.554,92.538,222.554z"/>
											</g>
											<g>
												<path d="M98.543,193.957c0-3.317-2.689-6.005-6.005-6.005c-3.317,0-6.006,2.689-6.006,6.005
													c0,2.185,1.171,4.091,2.915,5.142l-1.604,7.217h9.387l-1.465-7.301C97.434,197.948,98.543,196.084,98.543,193.957z"/>
											</g>
										</g>
									</g>
								</g>
								<path style="fill:#FCBCA0;" d="M392.934,187.294c-9.198,1.918-16.083,10.098-16.023,19.856
									c0.068,11.133,9.149,20.104,20.282,20.035c11.133-0.068,20.103-9.149,20.035-20.282
									c-0.059-9.673-6.922-17.709-16.023-19.607v-28.857h2.944c0-1.466,1.188-2.654,2.654-2.654c1.466,0,2.654,1.188,2.654,2.654
									h5.175v-6.293c-2.132,0-3.86-1.728-3.86-3.86c0-2.132,1.728-3.86,3.86-3.86v-6.885h-5.175c0,1.466-1.188,2.654-2.654,2.654
									c-1.466,0-2.654-1.188-2.654-2.654h-2.944h-8.271V187.294z M401.281,219.384c0.014,2.284-1.826,4.147-4.11,4.161
									c-2.284,0.014-4.147-1.826-4.161-4.11c-0.014-2.284,1.826-4.147,4.11-4.161C399.404,215.26,401.267,217.1,401.281,219.384z"
									/>
							</g>
						</g>
						<g>
							<ellipse style="fill:#9FA8E2;" cx="236.795" cy="416.971" rx="175.383" ry="13.95"/>
							<g>
								<g>
									<polygon style="fill:#D0D3FC;" points="368.78,208.686 368.812,208.686 365.42,190.607 285.153,190.607 289.817,208.686 
										45.685,208.686 98.738,414.318 403.97,414.318 									"/>
									<g>
										<polygon style="fill:#E9EBFF;" points="45.685,208.686 50.988,204.463 288.728,204.463 289.817,208.686 										"/>
										<polygon style="fill:#E9EBFF;" points="285.153,190.607 289.817,185.587 368.588,185.587 365.42,190.607 										"/>
										<polygon style="fill:#E9EBFF;" points="365.42,190.607 368.588,185.587 403.97,414.318 										"/>
									</g>
								</g>
								<g>
									<g>
										<g>
											<g>
												<path style="fill:#C1C4EA;" d="M278.451,273.628c-23.741,0-25.427-22.03-25.427-22.03h-30.214h-30.214
													c0,0,5.351,22.03-18.39,22.03c0,0,8.021,81.566,68.376,101.775C296.482,355.194,278.451,273.628,278.451,273.628z"/>
											</g>
										</g>
										<g>
											<path style="fill:#FFFFFF;" d="M271.712,272.03c-23.741,0-25.427-22.03-25.427-22.03h-30.214h-30.214
												c0,0,5.351,22.03-18.39,22.03c0,0,8.021,81.566,68.376,101.775C289.743,353.596,271.712,272.03,271.712,272.03z"/>
										</g>
									</g>
									<g>
										<path style="fill:#EDEDEF;" d="M253.475,323.21l-3.954-24.075h-3.036l-2.296-14.033
											c-1.781-10.885-11.895-19.741-22.547-19.741c-10.651,0-17.936,8.856-16.237,19.741l2.19,14.033h-3.036l3.742,24.075
											c1.959,12.604,13.705,22.822,26.234,22.822C247.065,346.032,255.545,335.814,253.475,323.21z M222.754,272.314
											c6.909,0,13.461,5.736,14.605,12.788l2.277,14.033h-25.192l-2.208-14.033C211.126,278.05,215.844,272.314,222.754,272.314
											z"/>
										<g>
											<g>
												<g>
													<path style="fill:#FD6E66;" d="M236.881,306.405c-1.894,0-3.682-1.557-3.993-3.477l-2.784-17.156
														c-1.144-7.051-7.696-12.788-14.605-12.788c-6.91,0-11.628,5.736-10.518,12.788l2.7,17.156
														c0.302,1.92-0.988,3.477-2.882,3.477c-1.894,0-3.672-1.557-3.972-3.477l-2.677-17.156
														c-1.698-10.885,5.586-19.741,16.237-19.741c10.651,0,20.766,8.856,22.547,19.741l2.807,17.156
														C240.055,304.849,238.774,306.405,236.881,306.405z"/>
												</g>
												<g>
													<path style="fill:#EF5A56;" d="M199.14,292.12l1.686,10.809c0.3,1.92,2.078,3.477,3.972,3.477
														c1.894,0,3.184-1.557,2.882-3.477l-1.239-7.873C203.95,294.323,201.502,293.346,199.14,292.12z"/>
													<path style="fill:#EF5A56;" d="M231.546,294.663l1.341,8.266c0.312,1.92,2.099,3.477,3.993,3.477
														c1.894,0,3.174-1.557,2.86-3.477l-1.783-10.899C235.911,293.06,233.773,293.954,231.546,294.663z"/>
												</g>
											</g>
											<g>
												<g>
													<path style="fill:#FD6E66;" d="M197.303,299.806l3.742,24.075c1.959,12.604,13.705,22.822,26.234,22.822
														c12.53,0,21.009-10.218,18.939-22.822l-3.954-24.075H197.303z"/>
													<path style="fill:#EF5A56;" d="M225.724,336.969c-8.794,0-17.183-5.379-21.618-13.049
														c1.759,10.846,11.877,19.618,22.668,19.618c10.79,0,18.104-8.773,16.396-19.618
														C241.188,331.59,234.518,336.969,225.724,336.969z"/>
												</g>
												<g>
													<path d="M226.737,315.717c-0.396-2.465-2.69-4.463-5.123-4.463c-2.433,0-4.089,1.998-3.697,4.463
														c0.258,1.624,1.344,3.041,2.75,3.821l-0.325,5.363h6.906l-1.947-5.425
														C226.399,318.683,226.991,317.298,226.737,315.717z"/>
												</g>
											</g>
										</g>
									</g>
								</g>
							</g>
							<g>
								<path style="fill:#FD6E66;" d="M324.48,194.483H217.517c-9.846,0-17.827,7.981-17.827,17.827
									c0,9.846,7.981,17.827,17.827,17.827h91.957l6.108,12.235l5.017-12.235h3.881c9.846,0,17.827-7.982,17.827-17.827
									C342.307,202.465,334.326,194.483,324.48,194.483z"/>
								<g>
									<path style="fill:#FFFFFF;" d="M221.974,209.402l5.725-3.356c0.132-0.088,0.23-0.142,0.296-0.165
										c0.066-0.021,0.12-0.054,0.165-0.099c0.35-0.087,0.712-0.043,1.086,0.132c0.372,0.176,0.625,0.461,0.756,0.855l1.185,3.751
										c0.132,0.352,0.099,0.714-0.099,1.086c-0.197,0.373-0.472,0.604-0.822,0.691c-0.044,0.044-0.22,0.088-0.527,0.132
										l-6.58,0.658l4.935,4.343c0.132,0.088,0.219,0.164,0.263,0.23c0.043,0.066,0.087,0.121,0.132,0.165
										c0.219,0.263,0.307,0.615,0.264,1.053c-0.044,0.439-0.242,0.768-0.592,0.987l-3.225,2.303
										c-0.307,0.22-0.658,0.286-1.053,0.197c-0.395-0.087-0.702-0.263-0.921-0.526l-0.264-0.461l-2.632-5.922l-2.632,5.922
										l-0.264,0.461c-0.22,0.263-0.526,0.439-0.921,0.526c-0.395,0.089-0.746,0.023-1.052-0.197l-3.225-2.303
										c-0.351-0.219-0.549-0.548-0.592-0.987c-0.044-0.438,0.043-0.79,0.264-1.053c0.043-0.043,0.087-0.099,0.132-0.165
										c0.043-0.066,0.132-0.142,0.263-0.23l4.869-4.343l-6.514-0.658c-0.352-0.043-0.527-0.087-0.527-0.132
										c-0.351-0.087-0.625-0.318-0.822-0.691c-0.198-0.372-0.23-0.734-0.099-1.086l1.185-3.751
										c0.132-0.395,0.383-0.68,0.756-0.855c0.372-0.175,0.734-0.219,1.086-0.132c0.043,0.044,0.099,0.077,0.165,0.099
										c0.066,0.023,0.165,0.077,0.296,0.165l5.659,3.356l-1.382-6.448c-0.044-0.219-0.066-0.395-0.066-0.526
										c0-0.351,0.141-0.679,0.428-0.987c0.285-0.306,0.625-0.461,1.02-0.461h3.948c0.395,0,0.734,0.154,1.02,0.461
										c0.285,0.307,0.428,0.636,0.428,0.987c0,0.132-0.023,0.307-0.066,0.526L221.974,209.402z"/>
								</g>
								<g>
									<path style="fill:#FFFFFF;" d="M255.122,209.402l5.725-3.356c0.132-0.088,0.23-0.142,0.296-0.165
										c0.066-0.021,0.12-0.054,0.165-0.099c0.35-0.087,0.712-0.043,1.086,0.132c0.372,0.176,0.625,0.461,0.756,0.855l1.185,3.751
										c0.131,0.352,0.099,0.714-0.099,1.086c-0.197,0.373-0.472,0.604-0.822,0.691c-0.044,0.044-0.22,0.088-0.527,0.132
										l-6.58,0.658l4.935,4.343c0.132,0.088,0.219,0.164,0.263,0.23c0.043,0.066,0.087,0.121,0.132,0.165
										c0.219,0.263,0.307,0.615,0.264,1.053c-0.044,0.439-0.242,0.768-0.592,0.987l-3.224,2.303
										c-0.307,0.22-0.658,0.286-1.052,0.197c-0.395-0.087-0.702-0.263-0.921-0.526l-0.263-0.461l-2.632-5.922l-2.632,5.922
										l-0.264,0.461c-0.22,0.263-0.526,0.439-0.921,0.526c-0.394,0.089-0.746,0.023-1.052-0.197l-3.225-2.303
										c-0.351-0.219-0.549-0.548-0.592-0.987c-0.044-0.438,0.043-0.79,0.264-1.053c0.043-0.043,0.087-0.099,0.132-0.165
										c0.043-0.066,0.132-0.142,0.263-0.23l4.869-4.343l-6.514-0.658c-0.352-0.043-0.527-0.087-0.527-0.132
										c-0.351-0.087-0.625-0.318-0.822-0.691c-0.198-0.372-0.23-0.734-0.099-1.086l1.185-3.751
										c0.132-0.395,0.383-0.68,0.756-0.855c0.372-0.175,0.734-0.219,1.086-0.132c0.043,0.044,0.099,0.077,0.165,0.099
										c0.066,0.023,0.165,0.077,0.296,0.165l5.659,3.356l-1.382-6.448c-0.044-0.219-0.066-0.395-0.066-0.526
										c0-0.351,0.142-0.679,0.428-0.987c0.285-0.306,0.625-0.461,1.02-0.461h3.948c0.395,0,0.734,0.154,1.02,0.461
										c0.285,0.307,0.428,0.636,0.428,0.987c0,0.132-0.023,0.307-0.066,0.526L255.122,209.402z"/>
								</g>
								<g>
									<path style="fill:#FFFFFF;" d="M288.27,209.402l5.725-3.356c0.132-0.088,0.23-0.142,0.296-0.165
										c0.066-0.021,0.121-0.054,0.165-0.099c0.35-0.087,0.712-0.043,1.086,0.132c0.372,0.176,0.625,0.461,0.756,0.855
										l1.185,3.751c0.132,0.352,0.099,0.714-0.099,1.086c-0.197,0.373-0.472,0.604-0.822,0.691
										c-0.044,0.044-0.22,0.088-0.526,0.132l-6.58,0.658l4.935,4.343c0.132,0.088,0.219,0.164,0.263,0.23
										c0.043,0.066,0.087,0.121,0.132,0.165c0.219,0.263,0.307,0.615,0.263,1.053c-0.044,0.439-0.242,0.768-0.592,0.987
										l-3.224,2.303c-0.307,0.22-0.658,0.286-1.053,0.197c-0.395-0.087-0.702-0.263-0.921-0.526l-0.264-0.461l-2.632-5.922
										l-2.632,5.922l-0.264,0.461c-0.22,0.263-0.526,0.439-0.921,0.526c-0.395,0.089-0.746,0.023-1.053-0.197l-3.224-2.303
										c-0.351-0.219-0.549-0.548-0.592-0.987c-0.044-0.438,0.043-0.79,0.264-1.053c0.043-0.043,0.087-0.099,0.132-0.165
										c0.043-0.066,0.132-0.142,0.263-0.23l4.869-4.343l-6.514-0.658c-0.352-0.043-0.527-0.087-0.527-0.132
										c-0.351-0.087-0.625-0.318-0.822-0.691c-0.198-0.372-0.23-0.734-0.099-1.086l1.185-3.751
										c0.132-0.395,0.383-0.68,0.756-0.855c0.373-0.175,0.734-0.219,1.086-0.132c0.043,0.044,0.099,0.077,0.165,0.099
										c0.066,0.023,0.165,0.077,0.296,0.165l5.659,3.356l-1.382-6.448c-0.044-0.219-0.066-0.395-0.066-0.526
										c0-0.351,0.141-0.679,0.428-0.987c0.284-0.306,0.625-0.461,1.02-0.461h3.948c0.395,0,0.734,0.154,1.02,0.461
										c0.285,0.307,0.428,0.636,0.428,0.987c0,0.132-0.023,0.307-0.066,0.526L288.27,209.402z"/>
								</g>
								<g>
									<path style="fill:#FFFFFF;" d="M321.418,209.402l5.725-3.356c0.132-0.088,0.23-0.142,0.296-0.165
										c0.066-0.021,0.12-0.054,0.165-0.099c0.35-0.087,0.712-0.043,1.086,0.132c0.372,0.176,0.625,0.461,0.756,0.855l1.185,3.751
										c0.132,0.352,0.099,0.714-0.099,1.086c-0.197,0.373-0.472,0.604-0.822,0.691c-0.044,0.044-0.22,0.088-0.526,0.132
										l-6.58,0.658l4.935,4.343c0.132,0.088,0.219,0.164,0.263,0.23c0.043,0.066,0.087,0.121,0.132,0.165
										c0.219,0.263,0.307,0.615,0.264,1.053c-0.044,0.439-0.242,0.768-0.592,0.987l-3.224,2.303
										c-0.307,0.22-0.658,0.286-1.052,0.197c-0.395-0.087-0.702-0.263-0.921-0.526l-0.263-0.461l-2.632-5.922l-2.632,5.922
										l-0.263,0.461c-0.22,0.263-0.526,0.439-0.921,0.526c-0.395,0.089-0.746,0.023-1.053-0.197l-3.224-2.303
										c-0.351-0.219-0.549-0.548-0.592-0.987c-0.044-0.438,0.043-0.79,0.264-1.053c0.043-0.043,0.087-0.099,0.132-0.165
										c0.043-0.066,0.132-0.142,0.263-0.23l4.869-4.343l-6.514-0.658c-0.352-0.043-0.526-0.087-0.526-0.132
										c-0.351-0.087-0.625-0.318-0.822-0.691c-0.198-0.372-0.23-0.734-0.099-1.086l1.185-3.751
										c0.132-0.395,0.384-0.68,0.756-0.855c0.372-0.175,0.734-0.219,1.086-0.132c0.043,0.044,0.099,0.077,0.165,0.099
										c0.066,0.023,0.165,0.077,0.296,0.165l5.659,3.356l-1.382-6.448c-0.044-0.219-0.066-0.395-0.066-0.526
										c0-0.351,0.142-0.679,0.428-0.987c0.284-0.306,0.625-0.461,1.02-0.461h3.948c0.395,0,0.734,0.154,1.02,0.461
										c0.285,0.307,0.428,0.636,0.428,0.987c0,0.132-0.023,0.307-0.066,0.526L321.418,209.402z"/>
								</g>
							</g>
						</g>
					</g>
				</g>
			</g>
			<g>
				<g>
					<path style="opacity:0.6;fill:#E1E4FF;" d="M200.885,340.086c-0.699-12.083-10.69-21.674-22.948-21.674
						c-6.09,0-11.611,2.382-15.727,6.244c-3.765-12.928-15.695-22.379-29.839-22.379c-2.652,0-5.226,0.334-7.684,0.959
						c-3.404-26.704-26.195-47.352-53.824-47.352c-19.177,0-36.018,9.953-45.673,24.967c-1.351-0.132-2.721-0.203-4.107-0.203
						c-20.781,0-38.019,15.133-41.318,34.979c-3.685-2.005-7.908-3.144-12.398-3.144c-14.348,0-25.98,11.632-25.98,25.98
						c0,0.548,0.049,1.083,0.082,1.623H200.885z"/>
					<g>
						<g>
							<g>
								<path style="fill:#EFA186;" d="M-5.676,502.759c0,0,153.236-167.967,119.926-196.305
									C74.671,272.783-5.676,502.759-5.676,502.759z"/>
								
									<line style="fill:none;stroke:#000000;stroke-width:0.5;stroke-linecap:round;stroke-linejoin:round;stroke-miterlimit:10;" x1="114.25" y1="306.454" x2="-4.673" y2="499.59"/>
							</g>
							<g>
								<path style="fill:#FCBCA0;" d="M-1.252,503.946c0,0,66.227-196.34,28.043-207.763
									C-18.58,282.61-1.252,503.946-1.252,503.946z"/>
								
									<line style="fill:none;stroke:#000000;stroke-width:0.5;stroke-linecap:round;stroke-linejoin:round;stroke-miterlimit:10;" x1="26.791" y1="296.183" x2="-1.578" y2="500.934"/>
							</g>
							<g>
								<path style="fill:#DD8C76;" d="M-5.81,507.388c0,0,164.159-84.779,146.768-115.772
									C120.294,354.792-5.81,507.388-5.81,507.388z"/>
								
									<line style="fill:none;stroke:#000000;stroke-width:0.5;stroke-linecap:round;stroke-linejoin:round;stroke-miterlimit:10;" x1="140.958" y1="391.616" x2="-4.152" y2="505.255"/>
							</g>
						</g>
						
							<path style="fill:none;stroke:#FFFFFF;stroke-width:0.75;stroke-linecap:round;stroke-linejoin:round;stroke-miterlimit:10;" d="
							M137.959,509.841v-32.849h-9.667c-0.769-5.361-1.869-10.614-3.283-15.738l9.183-3.698l-12.269-30.471l-9.683,3.899
							c-3.088-5.283-6.543-10.323-10.333-15.086l7.598-7.598l-23.227-23.227l-7.946,7.946c-4.128-3.085-8.45-5.924-12.943-8.5
							l4.483-10.526l-30.222-12.871l-4.639,10.893c-5.663-1.51-11.48-2.642-17.425-3.364v-12.031h-32.848v12.265
							c-5.046,0.685-9.999,1.66-14.839,2.917l-4.597-11.416l-30.471,12.269l4.617,11.465c-5.123,2.893-10.024,6.129-14.676,9.678
							l-8.726-8.726l-23.227,23.227l8.604,8.604c-3.11,3.989-5.989,8.168-8.614,12.516l-11.069-4.714l-12.871,30.222l10.742,4.575
							c-1.654,5.676-2.922,11.516-3.778,17.489h-11.467v32.849h10.997c0.598,5.245,1.513,10.394,2.727,15.426l-9.958,4.01
							l12.269,30.471l9.465-3.811c2.951,5.444,6.286,10.649,9.97,15.579l-7.018,7.018l23.227,23.227l6.67-6.67
							c4.235,3.37,8.686,6.481,13.335,9.298l-3.599,8.451l30.222,12.87l3.439-8.076c6.035,1.77,12.255,3.105,18.625,3.97v8.608
							h32.848v-8.375c5.565-0.676,11.022-1.703,16.343-3.071l3.093,7.68l30.471-12.27l-3.084-7.659
							c5.606-3.148,10.953-6.704,15.994-10.634l5.875,5.876l23.227-23.227l-5.998-5.998c3.341-4.379,6.412-8.976,9.174-13.774
							l7.904,3.366l12.871-30.222l-8.221-3.501c1.618-6.023,2.804-12.222,3.527-18.562H137.959z M2.062,559.57
							c-35.526,0-64.325-28.799-64.325-64.325c0-35.525,28.799-64.324,64.325-64.324s64.325,28.799,64.325,64.324
							C66.387,530.771,37.588,559.57,2.062,559.57z"/>
					</g>
				</g>
				<g>
					<g>
						<g>
							<path style="fill:#EFA186;" d="M504.871,501.644c0,0-190.424-208.418-149.03-243.581
								C405.024,216.284,504.871,501.644,504.871,501.644z"/>
							
								<line style="fill:none;stroke:#000000;stroke-width:0.5;stroke-linecap:round;stroke-linejoin:round;stroke-miterlimit:10;" x1="355.84" y1="258.064" x2="503.624" y2="497.712"/>
						</g>
						<g>
							<path style="fill:#FCBCA0;" d="M499.373,503.117c0,0-82.3-243.624-34.848-257.798
								C520.906,228.478,499.373,503.117,499.373,503.117z"/>
							
								<line style="fill:none;stroke:#000000;stroke-width:0.5;stroke-linecap:round;stroke-linejoin:round;stroke-miterlimit:10;" x1="464.525" y1="245.319" x2="499.778" y2="499.38"/>
						</g>
						<g>
							<path style="fill:#DD8C76;" d="M505.037,507.388c0,0-203.998-105.196-182.386-143.652
								C348.329,318.043,505.037,507.388,505.037,507.388z"/>
							
								<line style="fill:none;stroke:#000000;stroke-width:0.5;stroke-linecap:round;stroke-linejoin:round;stroke-miterlimit:10;" x1="322.65" y1="363.735" x2="502.976" y2="504.741"/>
						</g>
					</g>
					<path style="opacity:0.6;fill:#E1E4FF;" d="M482.44,489.776c-0.699-12.083-10.706-21.674-22.982-21.674
						c-6.099,0-11.628,2.382-15.751,6.244c-3.771-12.928-15.718-22.379-29.883-22.379c-2.656,0-5.234,0.334-7.695,0.959
						c-3.409-26.704-26.234-47.352-53.904-47.352c-19.205,0-36.072,9.953-45.742,24.967c-1.353-0.132-2.725-0.203-4.113-0.203
						c-20.813,0-38.076,15.134-41.38,34.979c-3.69-2.005-7.92-3.144-12.416-3.144c-14.37,0-26.019,11.632-26.019,25.98
						c0,0.548,0.049,1.083,0.082,1.623H482.44z"/>
				</g>
			</g>
		</g>
	</g>
</g>
</svg>
