<?xml version="1.0" encoding="utf-8"?>
<!-- Generator: Adobe Illustrator 27.5.0, SVG Export Plug-In . SVG Version: 6.00 Build 0)  -->
<svg version="1.1" xmlns="http://www.w3.org/2000/svg" xmlns:xlink="http://www.w3.org/1999/xlink" x="0px" y="0px"
	 viewBox="0 0 512 512" style="enable-background:new 0 0 512 512;" xml:space="preserve">
<g id="_x30_4">
</g>
<g id="_x30_3">
</g>
<g id="_x30_2">
</g>
<g id="_x30_1">
	<g>
		<path style="fill:#FFFFFF;" d="M193.633,512c-13.337,0-25.772-4.945-36.299-14.373H84.04c-7.772,0-14.073-6.301-14.073-14.073
			v-118.25c-3.057-1.468-5.535-4.018-6.889-7.246L13.375,239.49c-1.835-4.378-1.339-9.385,1.318-13.319
			c0.66-0.977,1.432-1.855,2.292-2.623l-0.753-8.286c-0.347-3.829,0.898-7.633,3.425-10.528c2.528-2.896,6.143-4.632,9.982-4.807
			c0,0,1.867-0.084,5.077-0.084c8.07,0,21.364,0.496,35.376,3.107c0.153-4.512,0.449-8.964,0.884-13.298
			c0.07-0.777,0.156-1.694,0.267-2.611c8.79-80.47,64.133-149.541,140.974-175.803l1.051-0.347c0.699-0.234,1.399-0.465,2.098-0.678
			C236.235,3.436,258.058,0,280.234,0h9.241c17.675,0,35.27,2.207,52.294,6.56c0.811,0.203,1.692,0.448,2.571,0.695
			c47.424,12.729,89.222,42.111,117.559,82.696c0.567,0.771,1.109,1.545,1.626,2.343c7.489,10.989,13.949,22.784,19.203,35.06
			c11.271,26.222,16.991,54.125,16.991,82.913l-0.372,58.821c0.246,1.05,0.372,2.129,0.372,3.216v211.251
			c0,7.771-6.301,14.073-14.073,14.073H237.308c-11.741,7.574-23.841,12.231-36.03,13.857C198.709,511.826,196.138,512,193.633,512z
			"/>
		<g>
			<path style="fill:#F8BDFF;" d="M441.039,201.909l7.186,219.173l-162.882,62.871H83.534V210.663c0-6.473,0.305-12.9,0.938-19.209
				c0.07-0.774,0.141-1.548,0.234-2.322c8.373-76.649,60.864-140.022,131.555-164.18c0.938-0.305,1.876-0.633,2.814-0.915
				c19.092-6.215,39.473-9.569,60.653-9.569h9.241c16.84,0,33.211,2.135,48.808,6.122c0.751,0.188,1.501,0.399,2.252,0.61
				c45.173,12.126,83.896,39.99,109.93,77.352c0.469,0.633,0.915,1.266,1.337,1.923c7.013,10.273,13.04,21.25,17.99,32.813
				C479.489,157.023,441.039,174.42,441.039,201.909z"/>
			<g>
				<g>
					<path style="fill:#302945;" d="M216.262,24.952c-2.111,6.52-3.072,13.439-4.011,20.217c-1.384,9.945-2.815,20.194-7.834,28.731
						c-3.213,5.465-7.951,9.992-13.463,13.158c-0.328-0.962-0.68-1.9-1.079-2.815c-4.879-11-16.746-18.06-27.676-16.465
						c-3.237,0.469-5.817,1.595-7.669,3.354c-4.714,4.527-3.682,12.337,0.234,16.793c3.448,3.893,9.1,6.215,15.949,6.52
						c6.45,0.281,12.923-1.149,18.763-3.964c1.829,8.045,0.493,17.239-3.893,25.542c-4.456,8.467-11.985,16.207-22.399,23.032
						c-2.814,1.829-5.465,3.354-8.021,4.597c0.422-10.836-4.714-21.085-13.299-25.823c-6.872-3.8-15.222-3.33-20.311,1.173
						c-6.004,5.277-6.473,15.902-1.032,22.727c4.761,5.934,13.205,9.053,22.024,8.139c3.213-0.328,6.473-1.126,9.874-2.439
						c-1.642,9.429-7.716,18.834-17.122,26.456c-14.119,11.446-32.601,16.864-50.591,15.245c-0.094,0.774-0.164,1.548-0.234,2.322
						c2.158,0.211,4.339,0.305,6.497,0.305c16.488,0,32.93-5.582,45.806-16.043c9.898-8.045,16.277-17.989,17.966-28.051
						c0.07-0.445,0.141-0.868,0.188-1.313c3.026-1.36,6.192-3.143,9.546-5.348c10.742-7.036,18.552-15.081,23.196-23.876
						c4.738-9.007,6.122-19.021,3.94-27.77c6.075-3.377,11.305-8.303,14.823-14.26c5.277-8.936,6.731-19.444,8.139-29.599
						c1.008-7.247,2.04-14.682,4.503-21.461C218.138,24.319,217.2,24.647,216.262,24.952z M170.808,92.102
						c-6.192-0.282-11.258-2.322-14.284-5.723c-3.143-3.588-4.057-10.015-0.375-13.533c1.478-1.431,3.635-2.345,6.403-2.744
						c0.915-0.141,1.853-0.211,2.791-0.211c9.077,0,18.341,6.192,22.375,15.292c0.446,0.985,0.821,1.97,1.126,3.002
						C183.262,90.953,177.047,92.383,170.808,92.102z M152.748,144.757c-3.635,1.525-7.06,2.439-10.437,2.791
						c-8.068,0.821-15.691-1.97-19.96-7.294c-4.691-5.887-4.362-15.011,0.751-19.49c2.369-2.088,5.582-3.143,9.006-3.143
						c2.861,0,5.864,0.727,8.608,2.252C148.714,124.305,153.546,134.484,152.748,144.757z"/>
				</g>
				<g>
					<path style="fill:#302945;" d="M449.96,98.552c-0.891,0.704-1.736,1.407-2.603,2.111c-5.418,4.48-10.531,8.702-16.84,10.953
						c-5.512,1.994-11.938,2.463-20.264,1.478c-9.616-1.126-27.207-5.043-37.081-18.646c-3.307-4.574-5.254-10.484-5.535-16.418
						c1.876,0.492,3.847,0.774,5.864,0.891c6.356,0.305,15.128-1.9,18.928-9.217c1.9-3.612,1.712-8.444-0.446-12.29
						c-1.806-3.213-4.714-5.183-7.975-5.395c-2.814-0.188-5.84,0.868-8.795,3.002c-6.544,4.761-9.663,12.149-10.015,19.795
						c-13.252-4.925-22.516-19.326-25.331-33.235c-1.29-6.403-1.36-13.65,0.164-20.382c-0.751-0.211-1.501-0.422-2.252-0.61
						c-1.642,7.107-1.571,14.729-0.211,21.461c3.026,14.87,13.134,30.279,27.606,35.252c0.188,6.661,2.369,13.345,6.098,18.529
						c7.693,10.625,21.437,17.591,38.699,19.608c2.885,0.328,5.535,0.493,8.045,0.493c5.043,0,9.382-0.68,13.299-2.111
						c6.684-2.392,12.196-6.942,17.544-11.352c0.797-0.657,1.618-1.337,2.439-1.994C450.875,99.818,450.429,99.185,449.96,98.552z
						 M376.572,56.921c1.759-1.267,4.456-2.744,7.271-2.557c2.463,0.141,4.691,1.689,6.098,4.198
						c1.783,3.166,1.947,7.13,0.422,10.062c-3.307,6.309-11.07,8.256-16.746,7.951c-2.087-0.117-4.081-0.446-6.004-0.962
						C367.8,68.319,370.615,61.26,376.572,56.921z"/>
				</g>
				<g>
					<path style="fill:#302945;" d="M186.522,479.566c-3.448-4.503-6.708-9.288-9.874-13.908
						c-4.949-7.271-10.085-14.776-16.09-21.437c-11.633-12.9-25.237-20.241-38.324-20.686c-1.853-0.07-3.706,0.023-5.535,0.234
						c-0.938-7.623-3.471-14.987-6.614-20.992c-5.535-10.648-12.454-17.849-20.57-21.414c-1.947-0.844-3.964-1.454-5.981-1.783
						v2.392c1.783,0.352,3.471,0.868,5.019,1.548c7.623,3.33,14.166,10.179,19.467,20.335c3.002,5.817,5.465,12.923,6.356,20.241
						c-5.418,0.938-10.625,3.026-15.175,6.098c-6.262,4.269-9.992,9.992-10.226,15.691c-0.141,3.706,1.618,7.576,4.62,10.062
						c2.463,2.064,5.371,2.838,8.162,2.205c2.486-0.539,4.832-2.134,7.177-4.855c6.755-7.787,8.725-17.591,7.998-27.207
						c1.736-0.188,3.495-0.258,5.23-0.211c12.431,0.422,25.448,7.482,36.636,19.913c5.91,6.544,11,13.979,15.925,21.179
						c3.166,4.644,6.45,9.452,9.945,14.002c0.774,1.032,1.571,2.017,2.369,2.979h3.026
						C188.891,482.568,187.695,481.091,186.522,479.566z M107.153,451.773c-1.994,2.322-3.94,3.659-5.911,4.104
						c-2.064,0.469-4.245-0.164-6.145-1.736c-2.416-1.994-3.893-5.207-3.776-8.162c0.188-4.949,3.542-9.991,9.218-13.838
						c4.222-2.862,9.053-4.808,14.072-5.699C115.268,435.425,113.415,444.549,107.153,451.773z M307.335,463.219
						c-4.057-5.324-10.437-8.913-17.075-9.616c-5.16-0.539-8.96,1.29-13.017,3.237c-1.243,0.61-2.557,1.22-3.94,1.806
						c-6.661,2.768-9.921,9.968-11.469,15.503c-0.563,1.97-1.009,3.987-1.454,5.957c-0.281,1.314-0.563,2.58-0.891,3.846h2.416
						c0.281-1.102,0.516-2.228,0.774-3.33c0.422-1.947,0.868-3.94,1.407-5.84c1.407-5.043,4.316-11.563,10.109-13.979
						c1.454-0.586,2.791-1.243,4.058-1.853c3.917-1.876,7.271-3.495,11.774-3.002c6.004,0.633,11.774,3.87,15.456,8.678
						c0.375,0.516,1.126,0.633,1.642,0.235C307.64,464.461,307.734,463.711,307.335,463.219z"/>
				</g>
			</g>
			<g>
				<g>
					<path style="fill:#977BFF;" d="M322.67,261.991c0,0-57.887,17.366-74.654,43.715s-45.511,98.408-45.511,98.408l-3.194-2.395
						l-65.073,9.581c0,0,10.779,93.817,64.674,86.631c53.895-7.186,88.627-83.837,88.627-83.837L322.67,261.991z"/>
				</g>
				<g>
					<g>
						<path style="fill:#F7EDE5;" d="M31.837,237.439l-2.096-23.055c0,0,61.979-2.695,79.345,24.852
							c0,0,29.043-58.386,75.453-61.081l12.875,24.852l-82.639,61.081l-82.938-25.45V237.439z"/>
					</g>
					<g>
						<polygon style="fill:#DB6758;" points="25.849,234.445 75.552,353.014 165.976,361.996 248.315,329.061 199.211,193.725 
							108.488,235.643 						"/>
					</g>
					<g>
						<path style="fill:#302945;" d="M148.011,361.074c-0.498,0-0.96-0.319-1.118-0.819l-38.924-123.06
							c-0.196-0.617,0.147-1.277,0.764-1.472c0.623-0.197,1.277,0.147,1.472,0.764l38.924,123.06
							c0.196,0.617-0.147,1.277-0.764,1.472C148.247,361.056,148.128,361.074,148.011,361.074z"/>
					</g>
				</g>
				<g>
					<g>
						<g>
							<path style="fill:#FF9191;" d="M146.813,409.903c0,0-13.174-95.015-16.767-109.387c-3.593-14.372-8.384-46.31-8.384-46.31
								s7.984-2.395,13.574,11.178c5.589,13.574,10.779,33.135,10.779,33.135l30.341-42.318c0,0,7.186,3.593,4.391,12.376
								l5.19-5.589c0,0,7.585,1.996,5.19,9.182c-2.395,7.186-6.388,13.973-6.388,13.973l5.988-5.589c0,0,5.589,1.198,3.194,9.98
								c-2.395,8.783-12.376,37.926-12.376,37.926s7.186,19.961,5.988,28.744c-1.198,8.783-5.589,13.973-5.589,13.973l7.186,32.337
								L146.813,409.903z"/>
						</g>
						<g style="opacity:0.37;">
							<path style="fill:#302945;" d="M146.813,409.903c0,0-13.174-95.015-16.767-109.387c-3.593-14.372-8.384-46.31-8.384-46.31
								s7.984-2.395,13.574,11.178c5.589,13.574,10.779,33.135,10.779,33.135l30.341-42.318c0,0,7.186,3.593,4.391,12.376
								l5.19-5.589c0,0,7.585,1.996,5.19,9.182c-2.395,7.186-6.388,13.973-6.388,13.973l5.988-5.589c0,0,5.589,1.198,3.194,9.98
								c-2.395,8.783-12.376,37.926-12.376,37.926s7.186,19.961,5.988,28.744c-1.198,8.783-5.589,13.973-5.589,13.973l7.186,32.337
								L146.813,409.903z"/>
						</g>
					</g>
					<g>
						<g>
							<path style="fill:#302945;" d="M157.392,307.278c-0.223,0-0.448-0.063-0.648-0.196c-0.539-0.358-0.686-1.087-0.327-1.626
								c0.202-0.302,20.142-30.339,23.258-37.354c2.132-4.795-1.349-8.666-3.086-10.209l-33.012,46.1
								c-0.376,0.527-1.111,0.649-1.637,0.271c-0.527-0.378-0.648-1.11-0.271-1.637l33.734-47.108
								c0.372-0.516,1.093-0.646,1.616-0.285c2.902,1.986,7.641,7.43,4.801,13.819c-3.196,7.194-22.623,36.457-23.449,37.7
								C158.144,307.093,157.771,307.278,157.392,307.278z"/>
						</g>
						<g>
							<path style="fill:#302945;" d="M171.164,313.266c-0.202,0-0.404-0.052-0.591-0.16c-0.559-0.328-0.747-1.046-0.42-1.604
								c0.062-0.105,6.198-10.613,9.332-17.273c0.717-1.523,1.614-3.336,2.584-5.297c3.167-6.401,7.502-15.167,8.096-19.321
								c0.504-3.524-2.424-4.867-3.809-5.3l-3.914,4.627c-0.418,0.495-1.159,0.557-1.652,0.139
								c-0.495-0.418-0.557-1.159-0.139-1.653l4.391-5.19c0.275-0.325,0.705-0.478,1.119-0.394c2.518,0.488,7.083,2.808,6.327,8.104
								c-0.647,4.525-4.899,13.122-8.315,20.029c-0.962,1.946-1.852,3.745-2.563,5.255c-3.18,6.756-9.369,17.352-9.431,17.459
								C171.959,313.059,171.567,313.266,171.164,313.266z"/>
						</g>
					</g>
				</g>
				<g>
					<path style="fill:#302945;" d="M485.142,210.663l-0.388,61.309c-1.102,0.352-1.84,37.949-3.037,37.879
						c-5.84-0.375-10.484-4.808-14.706-8.842c-25.073-23.829-54.813-42.171-81.034-64.71c-3.847-3.307-7.623-6.684-11.305-10.179
						c-8.702-8.139-17.051-16.676-25.213-25.401c-8.068-8.655-15.972-17.473-23.853-26.316c-1.055-1.173-2.134-2.392-3.096-3.659
						c-1.618-2.064-3.002-4.269-3.753-6.778c-0.094-0.305-0.164-0.633-0.234-0.938c-0.962-4.316,0.047-8.889,1.196-13.205
						c1.665-6.145,3.659-12.22,5.957-18.154c0.164-0.446,0.352-0.915,0.563-1.36c0.094-0.235,0.188-0.469,0.305-0.704
						c1.478-3.448,3.448-6.755,6.685-8.467c3.917-2.064,10.015-0.07,10.296,4.339l5.254,4.011h0.023l0.117,0.094
						c0,0.164,0.023,0.305,0.023,0.469v0.023c0.117,1.501,0.492,2.908,1.055,4.245c0.023,0.023,0.023,0.023,0.023,0.047
						c2.627,6.051,9.499,10.297,16.324,11.117c8.49,1.008,16.91-1.876,25.096-4.433c25.143-7.857,52.068-12.806,77.845-7.763
						C479.489,157.023,485.142,183.175,485.142,210.663z"/>
				</g>
				<g>
					<g>
						<polygon style="fill:#FF9191;" points="380.168,212.494 350.217,286.75 315.786,242.046 300.705,222.462 315.974,171.566 
							319.867,158.596 						"/>
					</g>
					<g style="opacity:0.37;">
						<polygon style="fill:#302945;" points="319.867,158.596 315.974,171.566 300.705,222.462 315.786,242.046 350.217,286.75 
							380.168,212.494 						"/>
					</g>
					<g>
						<path style="fill:#302945;" d="M324.23,211.04c-0.446,10.813-3.26,21.555-8.444,31.007l-15.081-19.584l15.269-50.896
							C321.697,183.88,324.769,197.483,324.23,211.04z"/>
					</g>
				</g>
				<g>
					<g>
						<path style="fill:#FF9191;" d="M335.93,130.861c-4.529-2.525-10.183-1.862-14.685,0.8
							c-8.539-21.854-29.787-37.343-54.665-37.343c-32.411,0-58.686,26.274-58.686,58.685c0,15.076,5.69,28.82,15.034,39.214
							c6.387,9.088,31.373,40.299,74.991,43.025c0,0,30.466-21.121,22.594-59.084c0.947-2.202,1.746-4.48,2.422-6.811
							c1.561,0.477,3.285,0.731,5.201,0.687c4.853-0.111,9.363-3.079,12.093-7.093c2.73-4.014,3.843-8.952,3.978-13.805
							C344.401,142.104,342.075,134.287,335.93,130.861z"/>
					</g>
					<g style="opacity:0.37;">
						<path style="fill:#302945;" d="M335.93,130.861c-4.529-2.525-10.183-1.862-14.685,0.8
							c-8.539-21.854-29.787-37.343-54.665-37.343c-32.411,0-58.686,26.274-58.686,58.685c0,15.076,5.69,28.82,15.034,39.214
							c6.387,9.088,31.373,40.299,74.991,43.025c0,0,30.466-21.121,22.594-59.084c0.947-2.202,1.746-4.48,2.422-6.811
							c1.561,0.477,3.285,0.731,5.201,0.687c4.853-0.111,9.363-3.079,12.093-7.093c2.73-4.014,3.843-8.952,3.978-13.805
							C344.401,142.104,342.075,134.287,335.93,130.861z"/>
					</g>
				</g>
				<g>
					<g>
						<path style="fill:#302945;" d="M223.443,185.46c-0.624,0-1.143-0.491-1.171-1.121c-0.189-4.291,2.241-8.51,6.048-10.498
							c0.573-0.3,1.281-0.077,1.583,0.497c0.299,0.574,0.077,1.283-0.497,1.583c-2.969,1.549-4.938,4.969-4.791,8.315
							c0.029,0.647-0.473,1.194-1.12,1.223C223.478,185.46,223.46,185.46,223.443,185.46z"/>
					</g>
					<g>
						<g>
							<g>
								<g>
									<path style="fill:#302945;" d="M241.402,197.266c-2.586,0-4.84-1.073-4.977-1.14c-0.582-0.282-0.825-0.981-0.543-1.564
										c0.282-0.581,0.984-0.827,1.564-0.546c0.039,0.017,3.874,1.83,6.472,0.289c1.583-0.941,2.467-3.02,2.626-6.178
										c0.033-0.647,0.6-1.159,1.231-1.112c0.647,0.033,1.144,0.584,1.112,1.231c-0.203,3.998-1.475,6.717-3.783,8.082
										C243.923,197.027,242.625,197.266,241.402,197.266z"/>
								</g>
								<g>
									<path style="fill:#302945;" d="M270.514,176.633c-1.755,0-3.303-0.535-4.213-1.05c-0.563-0.32-0.762-1.035-0.442-1.599
										c0.317-0.56,1.031-0.762,1.595-0.443c0.172,0.094,3.823,2.057,6.866-0.74c3.16-2.908,1.332-9.528,1.312-9.595
										c-0.176-0.623,0.184-1.271,0.807-1.448c0.621-0.179,1.27,0.182,1.449,0.805c0.093,0.327,2.246,8.075-1.981,11.964
										C274.188,176.109,272.25,176.633,270.514,176.633z"/>
								</g>
							</g>
							<g>
								<path style="fill:#302945;" d="M267.857,202.984c-1.108,0-4.321-2.505-25.052-25.39c-0.435-0.48-0.398-1.221,0.082-1.656
									c0.481-0.434,1.221-0.4,1.656,0.082c7.85,8.666,20.693,22.512,23.293,24.505c1.624-0.612,5.378-1.865,5.558-1.924
									c0.62-0.208,1.279,0.128,1.483,0.741c0.205,0.615-0.127,1.279-0.741,1.483c-1.362,0.455-5.074,1.709-5.898,2.061
									C268.125,202.936,268.01,202.984,267.857,202.984z"/>
							</g>
							<g>
								<path style="fill:#302945;" d="M279.547,209.679c-0.332,0-0.663-0.141-0.894-0.415c-0.419-0.495-0.357-1.235,0.136-1.653
									c3.109-2.634,4.661-7.087,3.861-11.082c-0.127-0.635,0.284-1.253,0.92-1.38c0.632-0.132,1.254,0.283,1.38,0.92
									c0.978,4.881-0.845,10.115-4.644,13.332C280.084,209.588,279.815,209.679,279.547,209.679z"/>
							</g>
						</g>
						<g>
							<path style="fill:#302945;" d="M253.865,156.015c-0.101,0-0.204-0.013-0.306-0.04c-0.625-0.168-0.996-0.812-0.828-1.437
								c0.381-1.419,1.293-2.749,2.635-3.846c1.175-0.962,2.522-1.628,3.692-2.177c2.111-0.991,4.382-1.88,6.765-1.624
								c0.644,0.068,1.111,0.645,1.043,1.288c-0.068,0.644-0.658,1.111-1.288,1.043c-1.879-0.198-3.842,0.626-5.523,1.415
								c-1.042,0.489-2.235,1.078-3.203,1.869c-0.67,0.549-1.536,1.45-1.855,2.64C254.855,155.67,254.381,156.015,253.865,156.015z"
								/>
						</g>
					</g>
				</g>
				<g>
					<path style="fill:#977BFF;" d="M485.142,272.7v211.252H286.132l-8.209-52.022l-1.149-7.318l-0.023-0.141l-0.258-3.119v-0.07
						l-9.734-113.331l-0.211-2.345l-1.173-13.674c0,0,3.424-2.345,8.795-5.723c0.633-0.422,1.314-0.821,1.994-1.267
						c3.448-2.158,7.529-4.62,11.938-7.13c8.491-4.902,18.2-9.968,26.949-13.299c0.117-0.047,0.234-0.094,0.352-0.117
						c1.994-0.774,3.964-1.454,5.817-1.97c0.164-0.07,0.305-0.094,0.446-0.141c0.211-0.07,0.422-0.141,0.633-0.188
						c0.141-0.047,0.258-0.094,0.375-0.117l-9.593-16.348l2.791-3.448l33.586-41.467l7.365-9.077l2.181-2.697l24.346,20.757
						c0,0,67.079,11.962,99.399,59.081C483.594,270.002,484.391,271.292,485.142,272.7z"/>
				</g>
				<g>
					<path style="fill:#302945;" d="M303.019,332.414c-0.117,0.352-5.324,15.996-10.883,34.759
						c-6.755,22.657-14.049,49.887-13.627,60.207c0,0.141,0.023,0.281,0.023,0.422c0.047,0.821,0.117,1.736,0.234,2.744
						c0,0.023,0,0.023,0,0.023c1.079,11.586,4.808,34.618,7.998,53.382h-2.345c-2.932-17.192-6.286-37.832-7.67-50.075
						c-0.258-2.298-0.446-4.316-0.563-5.934c-0.07-1.173-0.047-2.557,0.07-4.151c0.047-0.774,0.141-1.571,0.235-2.439v-0.07
						c1.548-13.322,7.927-36.589,13.744-56.103c5.277-17.591,10.109-32.132,10.554-33.493c0.211-0.61,0.868-0.962,1.501-0.751
						C302.902,331.148,303.23,331.804,303.019,332.414z"/>
				</g>
				<g>
					<path style="fill:#302945;" d="M246.219,75.156l2.096,34.732c0,0,4.192,20.061,26.947,27.546
						c22.756,7.485,29.942,6.887,29.942,6.887l11.977,15.869l4.064-28.529c0,0,17.693-7.501,22.185,9.266l7.286-3.493
						c0,0-14.372-67.069-37.726-70.662C289.634,63.179,246.219,75.156,246.219,75.156z"/>
				</g>
				<g>
					<path style="fill:#302945;" d="M251.097,85.683c2.386,11.444-1.517,23.308-6.966,33.65
						c-3.859,7.325-8.564,14.286-14.597,19.957c-6.033,5.671-13.465,10.016-21.589,11.616c0,0-1.548,14.075,6.836,28.447
						c8.384,14.372,17.666,23.953,17.666,23.953s-21.558,9.881-29.942-4.491c-8.384-14.372-8.683-28.445-8.683-28.445
						s-23.654-4.491-21.258-23.654s38.325-61.68,73.656-71.56L251.097,85.683z"/>
				</g>
				<g>
					<g>
						<path style="fill:#302945;" d="M324.099,160.775c-0.59,0-1.097-0.443-1.165-1.042c-0.566-5.047-0.31-9.054,0.803-12.608
							c1.426-4.548,4.374-8.179,8.085-9.964c0.584-0.285,1.285-0.033,1.566,0.549c0.28,0.584,0.034,1.285-0.549,1.566
							c-3.13,1.505-5.632,4.621-6.865,8.55c-1.012,3.233-1.238,6.933-0.709,11.646c0.072,0.644-0.392,1.224-1.035,1.296
							C324.186,160.772,324.143,160.775,324.099,160.775z"/>
					</g>
					<g>
						<path style="fill:#302945;" d="M324.518,151.482c-0.397,0-0.786-0.202-1.006-0.567c-0.334-0.555-0.156-1.276,0.4-1.61
							c4.251-2.563,9.981-2.585,14.255-0.053c0.557,0.33,0.741,1.049,0.411,1.607c-0.329,0.557-1.046,0.742-1.607,0.411
							c-3.551-2.104-8.313-2.088-11.85,0.044C324.933,151.428,324.724,151.482,324.518,151.482z"/>
					</g>
				</g>
				<g>
					<g>
						<path style="fill:#FF9191;" d="M289.036,444.036l-66.77-105.694l26.049-9.282l-19.462-53.595l23.654-5.09
							c0,0-3.892-18.264,11.378-18.863l5.09,13.174c0,0,0-5.389,6.887,0c6.887,5.389,28.145,31.139,26.947,39.223
							c-1.198,8.084-20.36,52.997-20.36,52.997l48.206,51.2C330.654,408.107,326.463,445.534,289.036,444.036z"/>
					</g>
					<g style="opacity:0.37;">
						<path style="fill:#302945;" d="M289.036,444.036l-66.77-105.694l26.049-9.282l-19.462-53.595l23.654-5.09
							c0,0-3.892-18.264,11.378-18.863l5.09,13.174c0,0,0-5.389,6.887,0c6.887,5.389,28.145,31.139,26.947,39.223
							c-1.198,8.084-20.36,52.997-20.36,52.997l48.206,51.2C330.654,408.107,326.463,445.534,289.036,444.036z"/>
					</g>
				</g>
				<g>
					<g>
						<path style="fill:#302945;" d="M228.852,276.638c-0.544,0-1.032-0.38-1.148-0.935c-0.131-0.634,0.276-1.255,0.91-1.387
							l24.553-5.09c0.632-0.132,1.253,0.276,1.387,0.91c0.13,0.634-0.276,1.255-0.911,1.387l-24.552,5.09
							C229.011,276.63,228.931,276.638,228.852,276.638z"/>
					</g>
					<g>
						<g>
							<path style="fill:#302945;" d="M278.704,308.376c-0.608,0-1.121-0.468-1.168-1.085l-1.326-17.537
								c-1.139-1.907-8.129-13.811-8.85-20.298c-0.865-7.785,3.372-8.453,3.552-8.478c0.64-0.085,1.232,0.361,1.32,1.004
								c0.086,0.629-0.346,1.21-0.968,1.315c-0.756,0.173-2.049,1.624-1.573,5.9c0.711,6.402,8.59,19.451,8.669,19.582
								c0.096,0.158,0.153,0.336,0.167,0.52l1.347,17.815c0.049,0.646-0.435,1.208-1.081,1.257
								C278.764,308.375,278.734,308.376,278.704,308.376z"/>
						</g>
						<g>
							<path style="fill:#302945;" d="M264.932,307.028c-0.511,0-0.981-0.337-1.127-0.854l-5.539-19.611
								c-0.25-0.535-7.395-16.838-6.628-25.276c0.822-9.038,11.603-10.859,12.063-10.932c0.536-0.097,1.083,0.222,1.282,0.743
								l4.192,11.078c0.229,0.606-0.077,1.283-0.683,1.512c-0.598,0.228-1.282-0.076-1.512-0.683l-3.832-10.128
								c-2.394,0.615-8.641,2.773-9.173,8.624c-0.713,7.836,6.42,24.108,6.492,24.272l5.594,19.765
								c0.176,0.623-0.186,1.271-0.81,1.447C265.145,307.014,265.038,307.028,264.932,307.028z"/>
						</g>
						<g>
							<path style="fill:#302945;" d="M235.051,290.264c-0.46,0-0.751-0.002-0.822-0.003c-0.648-0.008-1.167-0.539-1.159-1.186
								c0.008-0.643,0.531-1.159,1.173-1.159c0.02-0.001,0.157,0.001,0.668,0.002c2.635,0,12.508-0.101,16.436-1.575
								c0.609-0.227,1.283,0.079,1.511,0.686c0.227,0.607-0.08,1.283-0.686,1.511C247.899,290.142,237.996,290.264,235.051,290.264z
								"/>
						</g>
						<g>
							<path style="fill:#302945;" d="M252.206,307.777c-0.512,0-0.984-0.339-1.128-0.857l-4.941-17.665
								c-0.174-0.624,0.19-1.271,0.813-1.445c0.62-0.168,1.272,0.19,1.445,0.813l4.94,17.665c0.174,0.624-0.19,1.271-0.813,1.445
								C252.418,307.763,252.312,307.777,252.206,307.777z"/>
						</g>
						<g>
							<path style="fill:#302945;" d="M243.009,309.356c-0.582,0-1.087-0.432-1.163-1.024c-0.081-0.642,0.372-1.23,1.015-1.312
								c14.804-1.894,29.818-1.915,44.62-0.058c0.644,0.08,1.098,0.667,1.018,1.309c-0.08,0.643-0.661,1.094-1.309,1.018
								c-14.61-1.831-29.422-1.812-44.032,0.058C243.109,309.353,243.058,309.356,243.009,309.356z"/>
						</g>
						<g>
							<path style="fill:#302945;" d="M261.434,348.191c-0.445,0-0.871-0.255-1.068-0.687c-2.115-4.648-5.152-8.995-8.089-13.199
								c-4.09-5.853-8.318-11.906-10.235-18.968c-0.169-0.625,0.199-1.269,0.825-1.438c0.628-0.172,1.268,0.201,1.438,0.825
								c1.811,6.668,5.738,12.288,9.895,18.24c2.997,4.29,6.096,8.725,8.301,13.57c0.268,0.59,0.008,1.285-0.582,1.553
								C261.762,348.158,261.596,348.191,261.434,348.191z"/>
						</g>
					</g>
				</g>
				<g>
					<g>
						<path style="fill:#302945;" d="M407.086,457.871c-0.352,0.54-1.079,0.68-1.618,0.305l-56.032-37.433l-2.111-1.407
							L331.118,408.5c-1.618,8.889-4.925,15.621-9.006,20.734c-0.023,0.07-0.094,0.141-0.141,0.211
							c-5.77,7.177-13.064,11.07-19.303,13.205c-6.051,2.064-11.141,2.463-12.947,2.533l-0.023,0.023
							c1.337,2.087,6.004,9.428,12.102,18.576c0.446,0.704,0.915,1.407,1.407,2.134c3.8,5.7,8.092,11.985,12.384,18.036h-2.885
							c-4.245-5.981-8.397-12.102-12.079-17.614c-0.328-0.516-0.657-1.009-0.985-1.478c-6.755-10.203-11.727-18.13-12.29-18.998
							c-0.235-0.375-0.258-0.844-0.023-1.22l0.704-1.196c0.094-0.188,0.234-0.305,0.399-0.375c0.164-0.117,0.375-0.164,0.61-0.211
							c1.431,0.023,34.454-0.07,40.036-36.424c0.023-0.023,0.023-0.07,0.023-0.094c0.047-0.399,0.305-0.75,0.68-0.915
							c0.375-0.141,0.798-0.117,1.126,0.117l33.446,22.352l2.017,1.337l40.388,26.996
							C407.297,456.604,407.438,457.331,407.086,457.871z"/>
					</g>
					<g>
						<path style="fill:#302945;" d="M364.987,430.837c-0.12,0-0.242-0.018-0.362-0.057c-0.616-0.199-0.954-0.861-0.754-1.477
							l48.306-148.909c0.2-0.617,0.865-0.953,1.477-0.754c0.616,0.199,0.954,0.861,0.754,1.477l-48.306,148.909
							C365.942,430.522,365.482,430.837,364.987,430.837z"/>
					</g>
					<g>
						<path style="fill:#302945;" d="M481.108,381.222c-0.798,3.401-14.753,63.631-30.256,102.729h-2.556
							c15.738-39.427,30.326-102.401,30.514-103.246c0.164-0.633,0.774-1.032,1.407-0.891
							C480.849,379.956,481.248,380.589,481.108,381.222z"/>
					</g>
					<g>
						<path style="fill:#302945;" d="M300.776,466.355c-0.563,0-1.059-0.405-1.155-0.979c-0.107-0.639,0.324-1.244,0.963-1.35
							c11.567-1.933,22.534-7.534,30.882-15.772c8.602-8.488,13.986-18.44,15.999-29.577c0.116-0.638,0.731-1.059,1.363-0.946
							c0.638,0.116,1.06,0.726,0.946,1.363c-2.103,11.622-7.707,21.994-16.661,30.829c-8.689,8.573-20.103,14.404-32.142,16.416
							C300.906,466.351,300.841,466.355,300.776,466.355z"/>
					</g>
				</g>
				<g>
					<g>
						<path style="fill:#302945;" d="M232.846,446.806c-0.354,0-0.702-0.159-0.933-0.461L198.8,402.982l-62.79,9.478
							c-0.641,0.081-1.239-0.346-1.335-0.985c-0.096-0.64,0.345-1.238,0.985-1.335l63.477-9.581c0.42-0.06,0.848,0.109,1.107,0.449
							l33.535,43.915c0.393,0.514,0.294,1.251-0.221,1.643C233.344,446.729,233.094,446.806,232.846,446.806z"/>
					</g>
					<g>
						<path style="fill:#302945;" d="M136.632,426.047c-0.591,0-1.098-0.444-1.165-1.044c-0.071-0.644,0.394-1.223,1.037-1.294
							c0.468-0.052,47.128-5.286,67.063-15.449c0.578-0.298,1.283-0.066,1.577,0.512c0.294,0.577,0.065,1.283-0.512,1.577
							c-20.317,10.359-65.94,15.479-67.872,15.692C136.718,426.045,136.675,426.047,136.632,426.047z"/>
					</g>
				</g>
			</g>
		</g>
	</g>
</g>
<g id="PREVIEW">
</g>
</svg>
